A Halloween special featuring appropriately-themed rock and roll songs set to scenes from the Disney library of classic animation. 


Format                                   : MPEG-4
Format profile                           : Base Media
Codec ID                                 : isom
File size                                : 478 MiB
Duration                                 : 47mn 36s
Overall bit rate                         : 1 402 Kbps
Writing application                      : Lavf54.6.100

Video
ID                                       : 1
Format                                   : AVC
Format/Info                              : Advanced Video Codec
Format profile                           : Main@L5.1
Format settings, CABAC                   : Yes
Format settings, ReFrames                : 1 frame
Codec ID                                 : avc1
Codec ID/Info                            : Advanced Video Coding
Duration                                 : 47mn 36s
Bit rate                                 : 1 201 Kbps
Width                                    : 640 pixels
Height                                   : 480 pixels
Display aspect ratio                     : 4:3
Frame rate mode                          : Variable
Frame rate                               : 25.000 fps
Minimum frame rate                       : 24.876 fps
Maximum frame rate                       : 25.202 fps
Color space                              : YUV
Chroma subsampling                       : 4:2:0
Bit depth                                : 8 bits
Scan type                                : Progressive
Bits/(Pixel*Frame)                       : 0.156
Stream size                              : 409 MiB (86%)

Audio
ID                                       : 2
Format                                   : MPEG Audio
Format version                           : Version 1
Format profile                           : Layer 3
Codec ID                                 : 6B
Duration                                 : 47mn 36s
Bit rate mode                            : Constant
Bit rate                                 : 192 Kbps
Channel(s)                               : 2 channels
Sampling rate                            : 44.1 KHz
Compression mode                         : Lossy
Stream size                              : 65.4 MiB (14%)

Screens:
 
http://img40.imageshack.us/img40/1862/vlcsnap2012102613h50m18.png 
http://img38.imageshack.us/img38/6551/vlcsnap2012102613h50m52.png 
http://img198.imageshack.us/img198/1699/vlcsnap2012102613h51m14.png 
http://img41.imageshack.us/img41/7690/vlcsnap2012102613h52m14.png 
http://img210.imageshack.us/img210/852/vlcsnap2012102613h53m21.png

This is my own rip from an old beta tape I had lying around. It is the best quality I have found on the net.



